<?xml version="1.0" encoding="UTF-8"?>
<svg id="_レイヤー_1" data-name="レイヤー 1" xmlns="http://www.w3.org/2000/svg" viewBox="0 0 250 250">
  <defs>
    <style>
      .cls-1 {
        fill: #333;
      }
    </style>
  </defs>
  <path class="cls-1" d="m210.63,120.47c-1.95-11.55-10.8-58.15-13.01-69.22-.11-.53-.16-.59-.36-.8-.75-.75-2.98-1.29-5.62-1.29s-4.88.54-5.62,1.29c-.2.2-.22.27-.33.8-1.52,7.33-8.29,44.97-11.44,58.52-1.35,5.79-3.65,8.84-10.96,8.84-8.07,0-12.34-3.75-13.84-12.38-2.6-14.98-12.11-78.25-15.05-92.74-.15-.75-.26-1.27-1.61-1.95-1.81-.91-5.03-1.52-8.71-1.52-3.68,0-6.91.61-8.71,1.52-1.35.68-1.46,1.2-1.61,1.95-2.93,14.48-12.44,77.76-15.05,92.74-1.5,8.63-5.77,12.38-13.84,12.38-7.3,0-9.61-3.05-10.96-8.84-3.16-13.55-9.93-51.19-11.44-58.52-.11-.53-.13-.59-.33-.8-.75-.75-2.98-1.29-5.62-1.29s-4.88.54-5.62,1.29c-.2.2-.26.27-.36.8-2.21,11.07-11.06,57.67-13.01,69.22-.28,1.67-.45,3.57-.45,5.53,0,1.96.17,3.87.45,5.53,1.95,11.55,10.8,58.15,13.01,69.22.11.53.16.59.36.8.75.75,2.98,1.29,5.62,1.29s4.88-.54,5.62-1.29c.2-.2.22-.27.33-.8,1.52-7.33,8.29-44.97,11.44-58.52,1.35-5.79,3.65-8.84,10.96-8.84,8.07,0,12.34,3.75,13.84,12.38,2.6,14.98,12.11,78.25,15.05,92.74.15.75.26,1.27,1.61,1.95,1.81.91,5.03,1.52,8.71,1.52,3.68,0,6.91-.61,8.71-1.52,1.35-.68,1.46-1.2,1.61-1.95,2.93-14.48,12.44-77.76,15.05-92.74,1.5-8.63,5.77-12.38,13.84-12.38,7.3,0,9.61,3.05,10.96,8.84,3.16,13.55,9.93,51.19,11.44,58.52.11.53.13.59.33.8.75.75,2.98,1.29,5.62,1.29s4.88-.54,5.62-1.29c.2-.2.26-.27.36-.8,2.21-11.07,11.06-57.67,13.01-69.22.28-1.67.45-3.57.45-5.53,0-1.96-.17-3.87-.45-5.53Z"/>
</svg>
